<?xml version="1.0" encoding="utf-8"?>
<!-- Generator: Adobe Illustrator 24.2.3, SVG Export Plug-In . SVG Version: 6.00 Build 0)  -->
<svg version="1.1" id="图层_1" xmlns="http://www.w3.org/2000/svg" xmlns:xlink="http://www.w3.org/1999/xlink" x="0px" y="0px"
	 viewBox="0 0 875 312" style="enable-background:new 0 0 875 312;" xml:space="preserve">
<style type="text/css">
	.st0{fill:#FFFFFF;stroke:#000000;stroke-width:2;}
	.st1{font-family:'TimesNewRomanPSMT';}
	.st2{font-size:22px;}
	.st3{fill:none;stroke:#000000;stroke-width:2;stroke-miterlimit:10;}
	.st4{font-size:16px;}
	.st5{fill:#FFFFFF;stroke:#FF8000;stroke-width:2;stroke-dasharray:2,2;}
	.st6{font-size:14px;}
	.st7{font-size:17px;}
	.st8{fill:none;stroke:#000000;stroke-miterlimit:10;}
	.st9{stroke:#000000;stroke-miterlimit:10;}
</style>
<g>
	<path pointer-events="all" class="st0" d="M7.5,141.5h108c3.3,0,6,2.7,6,6v28c0,3.3-2.7,6-6,6H7.5c-3.3,0-6-2.7-6-6v-28
		C1.5,144.2,4.2,141.5,7.5,141.5z"/>
	<g transform="translate(-0.5 -0.5)">
		<text transform="matrix(1 0 0 1 22.3877 168.5)" class="st1 st2">H3DGIP</text>
	</g>
	<path pointer-events="all" class="st3" d="M144.5,81.5h-5c-3.3,0-5,3.3-5,10v60c0,6.7-1.7,10-5,10H127c-1.7,0-0.8,0,2.5,0h2.5
		c1.7,0,2.5,3.3,2.5,10v60c0,6.7,1.7,10,5,10h5"/>
	<path pointer-events="all" class="st0" d="M160.5,61.5h98c3.3,0,6,2.7,6,6v28c0,3.3-2.7,6-6,6h-98c-3.3,0-6-2.7-6-6v-28
		C154.5,64.2,157.2,61.5,160.5,61.5z"/>
	<g transform="translate(-0.5 -0.5)">
		<text transform="matrix(1 0 0 1 170.1758 86.5)" class="st1 st4">Hi-C library</text>
	</g>
	<path pointer-events="all" class="st0" d="M160.5,221.5h98c3.3,0,6,2.7,6,6v28c0,3.3-2.7,6-6,6h-98c-3.3,0-6-2.7-6-6v-28
		C154.5,224.2,157.2,221.5,160.5,221.5z"/>
	<g transform="translate(-0.5 -0.5)">
		<text transform="matrix(1 0 0 1 162.0234 246.5)" class="st1 st4">HiChIP library</text>
	</g>
	<path pointer-events="all" class="st3" d="M288.5,21.5h-5c-3.3,0-5,3.3-5,10v40c0,6.7-1.7,10-5,10H271c-1.7,0-0.8,0,2.5,0h2.5
		c1.7,0,2.5,3.3,2.5,10v40c0,6.7,1.7,10,5,10h5"/>
	<path pointer-events="all" class="st3" d="M288.5,181.5h-5c-3.3,0-5,3.3-5,10v40c0,6.7-1.7,10-5,10H271c-1.7,0-0.8,0,2.5,0h2.5
		c1.7,0,2.5,3.3,2.5,10v40c0,6.7,1.7,10,5,10h5"/>
	<path pointer-events="all" class="st5" d="M299,1.5h161c2.5,0,4.5,2,4.5,4.5v21c0,2.5-2,4.5-4.5,4.5H299c-2.5,0-4.5-2-4.5-4.5V6
		C294.5,3.5,296.5,1.5,299,1.5z"/>
	<g transform="translate(-0.5 -0.5)">
		<text transform="matrix(1 0 0 1 314.9585 20.5)" class="st1 st6">preparing_HiCPro_file</text>
	</g>
	<path pointer-events="all" class="st5" d="M299,41.5h161c2.5,0,4.5,2,4.5,4.5v21c0,2.5-2,4.5-4.5,4.5H299c-2.5,0-4.5-2-4.5-4.5V46
		C294.5,43.5,296.5,41.5,299,41.5z"/>
	<g transform="translate(-0.5 -0.5)">
		<text transform="matrix(1 0 0 1 320.417 60.5)" class="st1 st6">preparing_juicer_file</text>
	</g>
	<path pointer-events="all" class="st5" d="M299,81.5h161c2.5,0,4.5,2,4.5,4.5v21c0,2.5-2,4.5-4.5,4.5H299c-2.5,0-4.5-2-4.5-4.5V86
		C294.5,83.5,296.5,81.5,299,81.5z"/>
	<g transform="translate(-0.5 -0.5)">
		<text transform="matrix(1 0 0 1 312.8052 100.5)" class="st1 st6">preparing_TADLib_file</text>
	</g>
	<path pointer-events="all" class="st5" d="M299,121.5h161c2.5,0,4.5,2,4.5,4.5v21c0,2.5-2,4.5-4.5,4.5H299c-2.5,0-4.5-2-4.5-4.5
		v-21C294.5,123.5,296.5,121.5,299,121.5z"/>
	<g transform="translate(-0.5 -0.5)">
		<text transform="matrix(1 0 0 1 316.8999 140.5)" class="st1 st6">preparing_FitHiC_file</text>
	</g>
	<path pointer-events="all" class="st5" d="M299,281.5h161c2.5,0,4.5,2,4.5,4.5v21c0,2.5-2,4.5-4.5,4.5H299c-2.5,0-4.5-2-4.5-4.5
		v-21C294.5,283.5,296.5,281.5,299,281.5z"/>
	<g transform="translate(-0.5 -0.5)">
		<text transform="matrix(1 0 0 1 307.1758 300.5)" class="st1 st6">preparing_FitHiChIP_file</text>
	</g>
	<path pointer-events="all" class="st5" d="M299,226.5h161c2.5,0,4.5,2,4.5,4.5v21c0,2.5-2,4.5-4.5,4.5H299c-2.5,0-4.5-2-4.5-4.5
		v-21C294.5,228.5,296.5,226.5,299,226.5z"/>
	<g transform="translate(-0.5 -0.5)">
		<text transform="matrix(1 0 0 1 309.917 245.5)" class="st1 st6">preparing_hichipper_file</text>
	</g>
	<path pointer-events="all" class="st3" d="M474.5,11.5h5c3.3,0,5,3.3,5,10v125c0,6.7,1.7,10,5,10h2.5c1.7,0,0.8,0-2.5,0H487
		c-1.7,0-2.5,3.3-2.5,10v125c0,6.7-1.7,10-5,10h-5"/>
	<path pointer-events="all" class="st0" d="M709,138.3H869c3,0,5.5,2.4,5.5,5.5v25.6c0,3-2.4,5.5-5.5,5.5H709c-3,0-5.5-2.4-5.5-5.5
		v-25.6C703.5,140.7,705.9,138.3,709,138.3z"/>
	<g transform="translate(-0.5 -0.5)">
		<text transform="matrix(1 0 0 1 718.6694 161.5)" class="st1 st7">H3DGIP_workflows</text>
	</g>
	<path pointer-events="all" class="st5" d="M299,167h161c2.5,0,4.5,2,4.5,4.5v21c0,2.5-2,4.5-4.5,4.5H299c-2.5,0-4.5-2-4.5-4.5v-21
		C294.5,169,296.5,167,299,167z"/>
	<g transform="translate(-0.5 -0.5)">
		<text transform="matrix(1 0 0 1 314.9585 186.5)" class="st1 st6">preparing_HiCPro_file</text>
	</g>
	<path pointer-events="stroke" class="st8" d="M669.5,156.5h27.6"/>
	<path pointer-events="all" class="st9" d="M702.4,156.5l-7,3.5l1.8-3.5l-1.8-3.5L702.4,156.5z"/>
	<path pointer-events="all" class="st0" d="M504,138.3H664c3,0,5.5,2.4,5.5,5.5v25.6c0,3-2.4,5.5-5.5,5.5H504c-3,0-5.5-2.4-5.5-5.5
		v-25.6C498.5,140.7,500.9,138.3,504,138.3z"/>
	<g transform="translate(-0.5 -0.5)">
		<text transform="matrix(1 0 0 1 517.0022 161.5)" class="st1 st7">preparing_directory</text>
	</g>
</g>
</svg>
