<?xml version="1.0" encoding="utf-8"?>
<!-- Generator: Adobe Illustrator 24.2.3, SVG Export Plug-In . SVG Version: 6.00 Build 0)  -->
<svg version="1.1" id="图层_1" xmlns="http://www.w3.org/2000/svg" xmlns:xlink="http://www.w3.org/1999/xlink" x="0px" y="0px"
	 viewBox="0 0 1157 190" style="enable-background:new 0 0 1157 190;" xml:space="preserve">
<style type="text/css">
	.st0{fill:#FFFFFF;stroke:#000000;stroke-width:2;}
	.st1{font-family:'ArialMT';}
	.st2{font-size:20px;}
	.st3{fill:none;stroke:#000000;stroke-width:2;stroke-miterlimit:10;}
	.st4{fill:#FFFFFF;stroke:#60BCD1;stroke-width:2;}
	.st5{font-size:17px;}
	.st6{fill:#FFFFFF;stroke:#FEC000;stroke-width:2;}
	.st7{fill:#FFFFFF;stroke:#C1B4D2;stroke-width:2;}
	.st8{fill:none;stroke:#000000;stroke-miterlimit:10;}
	.st9{stroke:#000000;stroke-miterlimit:10;}
	.st10{enable-background:new    ;}
	.st11{font-family:'AdobeSongStd-Light-GBpc-EUC-H';}
	.st12{fill:none;}
	.st13{font-size:12px;}
</style>
<g>
	<path pointer-events="all" class="st0" d="M272.5,78.5h238c3.3,0,6,2.7,6,6v28c0,3.3-2.7,6-6,6h-238c-3.3,0-6-2.7-6-6v-28
		C266.5,81.2,269.2,78.5,272.5,78.5z"/>
	<g transform="translate(-0.5 -0.5)">
		<text transform="matrix(1 0 0 1 281.4512 104.5)" class="st1 st2">Preparing_FitHiChIP_file</text>
	</g>
	<path pointer-events="all" class="st3" d="M541.5,18.5h-5c-3.3,0-5,3.3-5,10v60c0,6.7-1.7,10-5,10H524c-1.7,0-0.8,0,2.5,0h2.5
		c1.7,0,2.5,3.3,2.5,10v60c0,6.7,1.7,10,5,10h5"/>
	<path pointer-events="all" class="st4" d="M556,2.5h226c2.5,0,4.5,2,4.5,4.5v21c0,2.5-2,4.5-4.5,4.5H556c-2.5,0-4.5-2-4.5-4.5V7
		C551.5,4.5,553.5,2.5,556,2.5z"/>
	<g transform="translate(-0.5 -0.5)">
		<text transform="matrix(1 0 0 1 639.2769 22.5)" class="st1 st5">HiC-Pro</text>
	</g>
	<path pointer-events="all" class="st6" d="M556,80.5h226c2.5,0,4.5,2,4.5,4.5v21c0,2.5-2,4.5-4.5,4.5H556c-2.5,0-4.5-2-4.5-4.5V85
		C551.5,82.5,553.5,80.5,556,80.5z"/>
	<g transform="translate(-0.5 -0.5)">
		<text transform="matrix(1 0 0 1 609.1865 100.5)" class="st1 st5">FitHiChIP.config</text>
	</g>
	<path pointer-events="all" class="st7" d="M556,158.5h226c2.5,0,4.5,2,4.5,4.5v21c0,2.5-2,4.5-4.5,4.5H556c-2.5,0-4.5-2-4.5-4.5
		v-21C551.5,160.5,553.5,158.5,556,158.5z"/>
	<g transform="translate(-0.5 -0.5)">
		<text transform="matrix(1 0 0 1 633.1343 178.5)" class="st1 st5">FitHiChIP</text>
	</g>
	<path pointer-events="stroke" class="st8" d="M196.5,98.5h63.6"/>
	<path pointer-events="all" class="st9" d="M265.4,98.5l-7,3.5l1.8-3.5l-1.8-3.5L265.4,98.5z"/>
	<path pointer-events="all" class="st3" d="M176.5,18.5h5c3.3,0,5,3.3,5,10v60c0,6.7,1.7,10,5,10h2.5c1.7,0,0.8,0-2.5,0H189
		c-1.7,0-2.5,3.3-2.5,10v60c0,6.7-1.7,10-5,10h-5"/>
	<path pointer-events="all" class="st4" d="M11,3.5h151c2.5,0,4.5,2,4.5,4.5v21c0,2.5-2,4.5-4.5,4.5H11c-2.5,0-4.5-2-4.5-4.5V8
		C6.5,5.5,8.5,3.5,11,3.5z"/>
	<g transform="translate(-0.5 -0.5)">
		<text transform="matrix(1 0 0 1 37.5337 23.5)" class="st10"><tspan x="0" y="0" class="st1 st5">H3DGIP </tspan><tspan x="68" y="0" class="st11 st5">位置</tspan><tspan x="102" y="0" class="st1 st5"> </tspan></text>
	</g>
	<path pointer-events="all" class="st7" d="M6,159.5h151c2.5,0,4.5,2,4.5,4.5v21c0,2.5-2,4.5-4.5,4.5H6c-2.5,0-4.5-2-4.5-4.5v-21
		C1.5,161.5,3.5,159.5,6,159.5z"/>
	<g transform="translate(-0.5 -0.5)">
		<text transform="matrix(1 0 0 1 56 179.5)" class="st11 st5">样本名称</text>
	</g>
	<rect x="198.5" y="70.5" pointer-events="all" class="st12" width="60" height="20"/>
	<g transform="translate(-0.5 -0.5)">
		<text transform="matrix(1 0 0 1 219.5 84.5)" class="st11 st13">输入</text>
	</g>
	<path pointer-events="stroke" class="st8" d="M816.5,95.5h73.6"/>
	<path pointer-events="all" class="st9" d="M895.4,95.5l-7,3.5l1.8-3.5l-1.8-3.5L895.4,95.5z"/>
	<path pointer-events="all" class="st3" d="M796.5,15.5h5c3.3,0,5,3.3,5,10v60c0,6.7,1.7,10,5,10h2.5c1.7,0,0.8,0-2.5,0H809
		c-1.7,0-2.5,3.3-2.5,10v60c0,6.7-1.7,10-5,10h-5"/>
	<path pointer-events="all" class="st3" d="M916.5,175.5h-5c-3.3,0-5-3.3-5-10v-60c0-6.7-1.7-10-5-10H899c-1.7,0-0.8,0,2.5,0h2.5
		c1.7,0,2.5-3.3,2.5-10v-60c0-6.7,1.7-10,5-10h5"/>
	<path pointer-events="all" class="st4" d="M926,1.5h226c2.5,0,4.5,2,4.5,4.5v21c0,2.5-2,4.5-4.5,4.5H926c-2.5,0-4.5-2-4.5-4.5V6
		C921.5,3.5,923.5,1.5,926,1.5z"/>
	<g transform="translate(-0.5 -0.5)">
		<text transform="matrix(1 0 0 1 977.6343 21.5)" class="st10"><tspan x="0" y="0" class="st1 st5">FitHiChIP</tspan><tspan x="72.7" y="0" class="st11 st5">配置文件</tspan></text>
	</g>
	<path pointer-events="all" class="st7" d="M926,157.5h226c2.5,0,4.5,2,4.5,4.5v21c0,2.5-2,4.5-4.5,4.5H926c-2.5,0-4.5-2-4.5-4.5
		v-21C921.5,159.5,923.5,157.5,926,157.5z"/>
	<g transform="translate(-0.5 -0.5)">
		<text transform="matrix(1 0 0 1 971.2593 177.5)" class="st10"><tspan x="0" y="0" class="st1 st5">FitHiChIP</tspan><tspan x="72.7" y="0" class="st11 st5">可执行命令</tspan></text>
	</g>
	<rect x="826.5" y="70.5" pointer-events="all" class="st12" width="60" height="20"/>
	<g transform="translate(-0.5 -0.5)">
		<text transform="matrix(1 0 0 1 847.5 84.5)" class="st11 st13">输出</text>
	</g>
</g>
</svg>
